<svg width="269" height="23" viewBox="0 0 269 23" fill="none" xmlns="http://www.w3.org/2000/svg">
<path d="M30.268 1.06L24.418 22H19.468L15.538 7.09L11.428 22L6.50801 22.03L0.868008 1.06H5.36801L9.05801 17.32L13.318 1.06H17.998L22.018 17.23L25.738 1.06H30.268ZM52.8104 22L48.1904 13.84H46.2104V22H42.0104V1.06H49.8704C51.4904 1.06 52.8704 1.35 54.0104 1.93C55.1504 2.49 56.0004 3.26 56.5604 4.24C57.1404 5.2 57.4304 6.28 57.4304 7.48C57.4304 8.86 57.0304 10.11 56.2304 11.23C55.4304 12.33 54.2404 13.09 52.6604 13.51L57.6704 22H52.8104ZM46.2104 10.69H49.7204C50.8604 10.69 51.7104 10.42 52.2704 9.88C52.8304 9.32 53.1104 8.55 53.1104 7.57C53.1104 6.61 52.8304 5.87 52.2704 5.35C51.7104 4.81 50.8604 4.54 49.7204 4.54H46.2104V10.69ZM74.4292 1.06V22H70.2292V1.06H74.4292ZM101.829 1.06V4.45H96.2488V22H92.0488V4.45H86.4688V1.06H101.829ZM118.093 4.45V9.7H125.143V13.03H118.093V18.58H126.043V22H113.893V1.03H126.043V4.45H118.093ZM146.09 22.21C144.63 22.21 143.31 21.96 142.13 21.46C140.97 20.96 140.05 20.24 139.37 19.3C138.69 18.36 138.34 17.25 138.32 15.97H142.82C142.88 16.83 143.18 17.51 143.72 18.01C144.28 18.51 145.04 18.76 146 18.76C146.98 18.76 147.75 18.53 148.31 18.07C148.87 17.59 149.15 16.97 149.15 16.21C149.15 15.59 148.96 15.08 148.58 14.68C148.2 14.28 147.72 13.97 147.14 13.75C146.58 13.51 145.8 13.25 144.8 12.97C143.44 12.57 142.33 12.18 141.47 11.8C140.63 11.4 139.9 10.81 139.28 10.03C138.68 9.23 138.38 8.17 138.38 6.85C138.38 5.61 138.69 4.53 139.31 3.61C139.93 2.69 140.8 1.99 141.92 1.51C143.04 1.01 144.32 0.76 145.76 0.76C147.92 0.76 149.67 1.29 151.01 2.35C152.37 3.39 153.12 4.85 153.26 6.73H148.64C148.6 6.01 148.29 5.42 147.71 4.96C147.15 4.48 146.4 4.24 145.46 4.24C144.64 4.24 143.98 4.45 143.48 4.87C143 5.29 142.76 5.9 142.76 6.7C142.76 7.26 142.94 7.73 143.3 8.11C143.68 8.47 144.14 8.77 144.68 9.01C145.24 9.23 146.02 9.49 147.02 9.79C148.38 10.19 149.49 10.59 150.35 10.99C151.21 11.39 151.95 11.99 152.57 12.79C153.19 13.59 153.5 14.64 153.5 15.94C153.5 17.06 153.21 18.1 152.63 19.06C152.05 20.02 151.2 20.79 150.08 21.37C148.96 21.93 147.63 22.21 146.09 22.21ZM181.411 7.54C181.411 8.66 181.141 9.71 180.601 10.69C180.081 11.67 179.251 12.46 178.111 13.06C176.991 13.66 175.571 13.96 173.851 13.96H170.341V22H166.141V1.06H173.851C175.471 1.06 176.851 1.34 177.991 1.9C179.131 2.46 179.981 3.23 180.541 4.21C181.121 5.19 181.411 6.3 181.411 7.54ZM173.671 10.57C174.831 10.57 175.691 10.31 176.251 9.79C176.811 9.25 177.091 8.5 177.091 7.54C177.091 5.5 175.951 4.48 173.671 4.48H170.341V10.57H173.671ZM206.233 18.01H197.893L196.513 22H192.103L199.633 1.03H204.523L212.053 22H207.613L206.233 18.01ZM205.093 14.65L202.063 5.89L199.033 14.65H205.093ZM222.848 11.5C222.848 9.44 223.308 7.6 224.228 5.98C225.168 4.34 226.438 3.07 228.038 2.17C229.658 1.25 231.468 0.789999 233.468 0.789999C235.808 0.789999 237.858 1.39 239.618 2.59C241.378 3.79 242.608 5.45 243.308 7.57H238.478C237.998 6.57 237.318 5.82 236.438 5.32C235.578 4.82 234.578 4.57 233.438 4.57C232.218 4.57 231.128 4.86 230.168 5.44C229.228 6 228.488 6.8 227.948 7.84C227.428 8.88 227.168 10.1 227.168 11.5C227.168 12.88 227.428 14.1 227.948 15.16C228.488 16.2 229.228 17.01 230.168 17.59C231.128 18.15 232.218 18.43 233.438 18.43C234.578 18.43 235.578 18.18 236.438 17.68C237.318 17.16 237.998 16.4 238.478 15.4H243.308C242.608 17.54 241.378 19.21 239.618 20.41C237.878 21.59 235.828 22.18 233.468 22.18C231.468 22.18 229.658 21.73 228.038 20.83C226.438 19.91 225.168 18.64 224.228 17.02C223.308 15.4 222.848 13.56 222.848 11.5ZM260.095 4.45V9.7H267.145V13.03H260.095V18.58H268.045V22H255.895V1.03H268.045V4.45H260.095Z" fill="#1E1E1E"/>
</svg>
